<svg xmlns="http://www.w3.org/2000/svg" xmlns:xlink="http://www.w3.org/1999/xlink" width="58.907" height="44.648" viewBox="0 0 58.907 44.648">
  <defs>
    <filter id="Path_14" x="0" y="0" width="58.907" height="44.648" filterUnits="userSpaceOnUse">
      <feOffset input="SourceAlpha"/>
      <feGaussianBlur stdDeviation="1.5" result="blur"/>
      <feFlood flood-color="#ed1c24"/>
      <feComposite operator="in" in2="blur"/>
      <feComposite in="SourceGraphic"/>
    </filter>
    <filter id="Path_15" x="8.407" y="6.446" width="42.093" height="31.756" filterUnits="userSpaceOnUse">
      <feOffset input="SourceAlpha"/>
      <feGaussianBlur stdDeviation="1" result="blur-2"/>
      <feFlood flood-color="#ed1c24"/>
      <feComposite operator="in" in2="blur-2"/>
      <feComposite in="SourceGraphic"/>
    </filter>
    <filter id="Path_16" x="15.369" y="10.768" width="28.258" height="23.122" filterUnits="userSpaceOnUse">
      <feOffset input="SourceAlpha"/>
      <feGaussianBlur stdDeviation="1" result="blur-3"/>
      <feFlood flood-color="#ed1c24"/>
      <feComposite operator="in" in2="blur-3"/>
      <feComposite in="SourceGraphic"/>
    </filter>
  </defs>
  <g id="ios-radio" transform="translate(4.5 4.5)">
    <g transform="matrix(1, 0, 0, 1, -4.5, -4.5)" filter="url(#Path_14)">
      <path id="Path_14-2" data-name="Path 14" d="M35.119,113.824a21.712,21.712,0,0,1,6.016-15.106,1.632,1.632,0,0,0-.045-2.261A1.537,1.537,0,0,0,40.01,96a1.562,1.562,0,0,0-1.125.49,25.264,25.264,0,0,0-.011,34.656,1.536,1.536,0,0,0,1.136.5,1.564,1.564,0,0,0,1.081-.434,1.608,1.608,0,0,0,.49-1.114,1.553,1.553,0,0,0-.446-1.147A21.8,21.8,0,0,1,35.119,113.824Zm39.9-17.334A1.519,1.519,0,0,0,73.908,96a1.564,1.564,0,0,0-1.081.434,1.608,1.608,0,0,0-.49,1.114,1.553,1.553,0,0,0,.446,1.147,22,22,0,0,1,0,30.234,1.629,1.629,0,0,0,.033,2.25,1.524,1.524,0,0,0,2.217-.067,25.222,25.222,0,0,0-.011-34.623Z" transform="translate(-27.5 -91.5)" fill="#ed1c24"/>
    </g>
    <g transform="matrix(1, 0, 0, 1, -4.5, -4.5)" filter="url(#Path_15)">
      <path id="Path_15-2" data-name="Path 15" d="M101.263,163.493a14.417,14.417,0,0,1,.167-20.419,1.563,1.563,0,0,0,.022-2.206,1.56,1.56,0,0,0-2.206-.022,17.564,17.564,0,0,0-.2,24.842,1.553,1.553,0,0,0,1.1.468,1.509,1.509,0,0,0,1.092-.468,1.543,1.543,0,0,0,.457-1.092,1.436,1.436,0,0,0-.434-1.1Zm23.594-22.636a1.514,1.514,0,0,0-1.092-.446,1.6,1.6,0,0,0-1.114.457,1.563,1.563,0,0,0,.011,2.206,14.083,14.083,0,0,1,4.311,10.193,14.584,14.584,0,0,1-4.133,10.226,1.56,1.56,0,0,0,1.1,2.651,1.531,1.531,0,0,0,1.1-.457,17.642,17.642,0,0,0,5.046-12.41A17.272,17.272,0,0,0,124.858,140.857Z" transform="translate(-82.59 -130.95)" fill="#ed1c24"/>
    </g>
    <g transform="matrix(1, 0, 0, 1, -4.5, -4.5)" filter="url(#Path_16)">
      <path id="Path_16-2" data-name="Path 16" d="M162.137,179.668a1.54,1.54,0,0,0-1.114-.468,1.5,1.5,0,0,0-1.092.457,11.445,11.445,0,0,0-.145,16.2,1.559,1.559,0,0,0,1.114.468,1.533,1.533,0,0,0,1.092-.446,1.515,1.515,0,0,0,.468-1.1A1.549,1.549,0,0,0,162,193.66a8.352,8.352,0,0,1,.111-11.8A1.57,1.57,0,0,0,162.137,179.668Zm13.212-.022a1.514,1.514,0,0,0-1.092-.446,1.6,1.6,0,0,0-1.114.457,1.563,1.563,0,0,0,.011,2.206,8.352,8.352,0,0,1,.1,11.808,1.513,1.513,0,0,0-.446,1.1,1.543,1.543,0,0,0,.457,1.092,1.563,1.563,0,0,0,1.092.457,1.534,1.534,0,0,0,1.1-.468,11.471,11.471,0,0,0-.111-16.209Zm-7.765,3.877a4.233,4.233,0,1,0,4.233,4.233A4.231,4.231,0,0,0,167.584,183.522Z" transform="translate(-138.13 -165.43)" fill="#ed1c24"/>
    </g>
  </g>
</svg>
